{"title":"Me and Orson Welles.2008.DVDRip.XVid.AC3(5.1).SWESUB.avi","uid":5499288,"size":1470807924,"categoryP":"video","categoryS":"movies","magnet":"?xt=urn:btih:eb7e69a388c914b3173965213abf00677e0048fc&amp;dn=Me+and+Orson+Welles.2008.DVDRip.XVid.AC3%285.1%29.SWESUB.avi&amp;tr=udp%3A%2F%2Ftracker.openbittorrent.com%3A80&amp;tr=udp%3A%2F%2Fopen.demonii.com%3A1337&amp;tr=udp%3A%2F%2Ftracker.coppersurfer.tk%3A6969&amp;tr=udp%3A%2F%2Fexodus.desync.com%3A6969","seeders":1,"leechers":0,"uploader":"Zen_Bud","files":-1,"time":1271441465,"description":"General\nComplete name                    : Me and Orson Welles.avi\nFormat                           : AVI\nFormat/Info                      : Audio Video Interleave\nFile size                        : 1.37 GiB\nDuration                         : 1h 48mn\nOverall bit rate                 : 1 800 Kbps\n\nVideo\nID                               : 0\nFormat                           : MPEG-4 Visual\nCodec ID/Hint                    : XviD\nDuration                         : 1h 48mn\nBit rate                         : 1 341 Kbps\nWidth                            : 720 pixels\nHeight                           : 426 pixels\nDisplay aspect ratio             : 2.40:1\nResolution                       : 8 bits\nColorimetry                      : 4:2:0\nScan type                        : Progressive\nBits/(Pixel*Frame)               : 0.175\nStream size                      : 1.02 GiB (75%)\nWriting library                  : XviD 1.1.2 (UTC 2006-11-01)\n\nAudio\nID                               : 1\nFormat                           : AC-3\nFormat/Info                      : Audio Coding 3\nCodec ID                         : 2000\nDuration                         : 1h 48mn\nBit rate mode                    : Constant\nBit rate                         : 448 Kbps\nChannel(s)                       : 6 channels\nChannel positions                : Front: L C R, Side: L R, LFE\nSampling rate                    : 48.0 KHz\nStream size                      : 349 MiB (25%)\n\n\n","torrent":{"xt":"urn:btih:eb7e69a388c914b3173965213abf00677e0048fc","amp;dn":"Me+and+Orson+Welles.2008.DVDRip.XVid.AC3%285.1%29.SWESUB.avi","amp;tr":["udp%3A%2F%2Ftracker.openbittorrent.com%3A80","udp%3A%2F%2Fopen.demonii.com%3A1337","udp%3A%2F%2Ftracker.coppersurfer.tk%3A6969","udp%3A%2F%2Fexodus.desync.com%3A6969"],"infoHash":"eb7e69a388c914b3173965213abf00677e0048fc","infoHashBuffer":{"type":"Buffer","data":[235,126,105,163,136,201,20,179,23,57,101,33,58,191,0,103,126,0,72,252]},"announce":[],"urlList":[]}}